<svg xmlns="http://www.w3.org/2000/svg"><symbol viewBox="0 0 32 32" id="icon-fb" xmlns="http://www.w3.org/2000/svg"><path fill-rule="evenodd" d="M14.958 31.041V19.034H12v-4.93h2.958v-3.481c0-2.931 2.27-5.623 6.636-5.623 1.768 0 3.325.169 3.325.169l-.02 4.891s-1.666-.013-3.121-.013c-1.574 0-1.827.726-1.827 1.93v2.127h4.678l-.207 4.93h-4.471v12.007h-4.993z"/></symbol><symbol viewBox="0 0 32 32" id="icon-tw" xmlns="http://www.w3.org/2000/svg"><path fill-rule="evenodd" d="M27 10.116a9.014 9.014 0 01-2.592.711 4.527 4.527 0 001.984-2.497 9.032 9.032 0 01-2.866 1.095 4.514 4.514 0 00-7.691 4.117 12.812 12.812 0 01-9.303-4.716 4.486 4.486 0 00-.611 2.269c0 1.566.796 2.947 2.007 3.757a4.507 4.507 0 01-2.044-.565v.057a4.517 4.517 0 003.62 4.426 4.519 4.519 0 01-2.038.077 4.519 4.519 0 004.216 3.135 9.058 9.058 0 01-5.605 1.932c-.365 0-.724-.022-1.077-.063a12.78 12.78 0 006.919 2.028c8.302 0 12.842-6.878 12.842-12.842 0-.196-.004-.391-.013-.584A9.182 9.182 0 0027 10.116z"/></symbol><symbol viewBox="0 0 32 32" id="icon-vk" xmlns="http://www.w3.org/2000/svg"><path fill-rule="evenodd" d="M15.732 22.401h1.309s.395-.044.597-.261c.186-.2.18-.575.18-.575s-.026-1.756.79-2.015c.803-.255 1.835 1.697 2.929 2.448.827.568 1.455.444 1.455.444l2.925-.041s1.53-.094.804-1.297c-.06-.098-.422-.89-2.174-2.516-1.834-1.702-1.589-1.427.62-4.371 1.346-1.793 1.883-2.888 1.715-3.357-.16-.446-1.15-.328-1.15-.328l-3.292.02s-.244-.033-.425.075c-.177.106-.29.353-.29.353s-.522 1.388-1.217 2.568c-1.466 2.49-2.053 2.621-2.292 2.467-.558-.36-.419-1.448-.419-2.22 0-2.413.366-3.42-.712-3.68-.358-.086-.622-.143-1.537-.153-1.175-.011-2.17.004-2.733.28-.374.183-.663.592-.487.616.217.029.71.133.971.488.338.46.326 1.49.326 1.49s.194 2.84-.453 3.193c-.444.242-1.052-.252-2.36-2.51-.67-1.158-1.175-2.437-1.175-2.437s-.098-.239-.272-.367a1.36 1.36 0 00-.505-.204l-3.13.02s-.47.014-.642.218c-.153.182-.012.558-.012.558s2.45 5.731 5.224 8.62c2.543 2.648 5.432 2.474 5.432 2.474"/></symbol><symbol viewBox="0 0 80 37" id="logo" xmlns="http://www.w3.org/2000/svg"><g fill="none"><path fill="#8CD1E7" d="M8.44 33.355a.77.77 0 00.399.232.812.812 0 01.597.96v.017a.903.903 0 01-.282.448.801.801 0 01-.498.182h-.1c-.033 0-.066-.017-.099-.017-.58-.149-.98-.43-1.261-.762-.399-.48-.548-1.06-.548-1.408v-.133l1.51-.033v.116h.133c-.033.033 0 .232.15.398m18.359.066v.017c.05.132.066.314.1.563.016.232.033.514.033.845V37H10.349l-.199-.53c-.016-.05-.15-.414-.199-.928a4.695 4.695 0 01-.017-.978 4.11 4.11 0 01.664-1.922c.332-.513.814-1.01 1.528-1.441 0 0 .066-.034.083-.05l1.826-15.095h-1.279a.876.876 0 01-.58-.232.799.799 0 01-.233-.58v-2.866c0-.232.1-.431.232-.58a.802.802 0 01.581-.232h.598V7.77h-.432a.876.876 0 01-.58-.232.799.799 0 01-.233-.58c0-.232.1-.43.232-.58a.802.802 0 01.581-.232h.349a5.545 5.545 0 013.353-3.695V.812c0-.232.1-.43.233-.58a.802.802 0 01.58-.232h2.374c.233 0 .432.1.581.232.15.15.233.348.233.58v1.624a5.734 5.734 0 012.125 1.458c.564.63.996 1.392 1.228 2.237h.133c.232 0 .431.1.58.232.15.149.233.348.233.58 0 .232-.1.43-.232.58a.802.802 0 01-.581.232h-.432v3.81h.598c.232 0 .431.1.58.233.15.149.233.348.233.58v2.883c0 .232-.1.43-.232.58a.802.802 0 01-.581.232h-1.212l1.959 16.072c.315.017.63.116.896.265a2.229 2.229 0 01.764.762.807.807 0 01.05.116c.016.05.033.083.066.133-.017 0 0 0 0 0zM18.998 1.624h-.747v.447h.73v-.447h.017zm1.892 2.784a3.863 3.863 0 00-4.515 0 3.899 3.899 0 00-1.378 1.723h7.288a4.053 4.053 0 00-1.395-1.723zm1.18 3.362h-7.088v3.795h7.088V7.77zm1.411 5.418h-9.91v1.26h9.91v-1.26zm-8.084 5.27l3.353-2.37h-3.071l-.282 2.37zM11.993 33.52c-.233.348-.365.73-.415 1.16-.017.133-.017.282-.017.398 0 .1.017.215.017.298h9.561v-.812c0-.315-.116-.613-.315-.845a1.29 1.29 0 00-.78-.447c-.515-.083-.963-.166-1.345-.216a18.302 18.302 0 00-.98-.149c-.398-.05-.796-.165-1.228-.281-.58-.15-1.195-.315-1.809-.365-.598-.05-1.179.033-1.71.365-.415.248-.747.546-.98.894zm10.773 1.856h2.523v-1.21a.39.39 0 00-.116-.265.392.392 0 00-.265-.116H23.53a.876.876 0 01-.581-.231.799.799 0 01-.233-.58c0-.232.083-.431.233-.58a.847.847 0 01.431-.232l-.713-5.85-4.366 3.116c-.067.05-.15.083-.233.116-.083.033-.166.033-.249.033a.772.772 0 01-.381-.1.858.858 0 01-.3-.248.836.836 0 01.2-1.143l5.096-3.613-1.012-8.318-6.325 4.474-.448 3.695 3.37-2.386a.745.745 0 01.614-.132.838.838 0 01.531.331.807.807 0 01.133.613.836.836 0 01-.332.53l-4.582 3.248-.498 4.11a5.874 5.874 0 011.527.066c.532.082 1.03.215 1.478.348.382.099.747.198 1.046.248.265.033.597.083.996.15.415.065.863.148 1.36.231.715.116 1.329.48 1.76.994.432.514.698 1.177.698 1.906v.795h.016zM9.104 8.301l-4.697-1.59a.77.77 0 01-.465-.415.754.754 0 01-.033-.63.77.77 0 01.415-.463.758.758 0 01.63-.033l4.682 1.59a.77.77 0 01.464.415c.1.182.117.414.034.63a.797.797 0 01-.3.397.792.792 0 01-.48.15c-.05 0-.084 0-.133-.017-.034 0-.067-.017-.117-.034zM1.485 5.733l-.93-.315a.77.77 0 01-.464-.414.754.754 0 01-.033-.63.77.77 0 01.415-.464.758.758 0 01.63-.033l.93.315a.77.77 0 01.465.414c.1.183.116.415.033.63a.797.797 0 01-.299.398.792.792 0 01-.481.149c-.05 0-.083 0-.133-.017-.033-.016-.083-.016-.133-.033zm8.15 6.197l-8.548 2.9c-.05.016-.083.033-.133.033s-.083.017-.133.017a.866.866 0 01-.481-.15.905.905 0 01-.299-.397.911.911 0 01.033-.63.88.88 0 01.465-.414l8.532-2.883a.916.916 0 01.631.033.88.88 0 01.415.464c.066.215.05.43-.033.63a.717.717 0 01-.448.397zm18.16-3.595c-.049 0-.082.016-.132.016a.866.866 0 01-.481-.149.905.905 0 01-.3-.398.911.911 0 01.034-.63.88.88 0 01.465-.414l8.532-2.883a.916.916 0 01.631.033.88.88 0 01.415.464.914.914 0 01-.033.63.88.88 0 01-.465.414l-8.532 2.883a.508.508 0 01-.133.034zm-9.61.513h.713c.233 0 .432.1.581.232.15.15.233.348.233.58 0 .232-.1.43-.233.58a.802.802 0 01-.58.232h-.714a.876.876 0 01-.581-.232.799.799 0 01-.233-.58c0-.232.1-.43.233-.58a.91.91 0 01.58-.232zM7.594 29.278c.946.083 1.81.448 2.473 1.061a.77.77 0 01.25.563.84.84 0 01-.217.58.77.77 0 01-.564.249.844.844 0 01-.58-.216c-.416-.38-.98-.596-1.611-.646-.647-.05-1.378.1-2.108.414a6.863 6.863 0 00-1.843 1.227c-.98.894-1.46 1.806-1.46 1.822a.783.783 0 01-.3.315.805.805 0 01-.431.116c-.066 0-.133 0-.2-.016a.81.81 0 01-.182-.067.815.815 0 01-.398-.48.793.793 0 01.05-.613c.033-.067.614-1.16 1.792-2.254a8.582 8.582 0 012.308-1.524c1.029-.448 2.075-.613 3.02-.53z"/><path fill="#F8F5F0" d="M64.731 27.892h1.948v2.668h.3l2.148-2.668h2.315l-2.814 3.275 2.897 3.705h-2.448l-2.114-2.843h-.284v2.843H64.6v-6.98h.132zm-4.678 5.399c.1 0 .183 0 .266-.016.083-.016.183-.032.266-.064.084-.032.167-.064.233-.112.067-.048.134-.112.2-.175a.894.894 0 00.167-.24c.05-.096.1-.208.133-.32.033-.127.067-.255.1-.415.017-.16.033-.335.033-.527v-.192a4.37 4.37 0 00-.033-.495 1.567 1.567 0 00-.1-.399 1.306 1.306 0 00-.133-.303c-.05-.096-.117-.16-.167-.224-.066-.064-.133-.112-.2-.16-.066-.048-.15-.08-.233-.112-.083-.032-.183-.048-.266-.064-.083-.015-.183-.015-.266-.015-.1 0-.184 0-.267.015-.083.016-.183.032-.266.064a1.006 1.006 0 00-.233.112c-.067.048-.134.096-.2.16a1.136 1.136 0 00-.167.224c-.05.095-.1.191-.133.303-.033.112-.067.24-.1.4a4.123 4.123 0 00-.033.494v.192c0 .192.017.368.033.527.017.16.05.288.1.416.033.127.083.223.133.319s.117.176.167.24c.066.063.133.127.2.175.066.048.15.08.233.112.083.032.166.048.266.064.067.016.167.016.267.016zm0 1.709c-.234 0-.467-.016-.7-.048a4.46 4.46 0 01-.666-.144c-.216-.064-.416-.16-.616-.255a4.034 4.034 0 01-.533-.384 2.47 2.47 0 01-.433-.495 3.33 3.33 0 01-.55-1.358 4.846 4.846 0 01-.066-.878v-.192c0-.303.017-.575.067-.846a3.3 3.3 0 01.216-.719c.1-.223.2-.415.333-.607.134-.176.267-.335.433-.479.167-.144.333-.272.533-.367.183-.096.383-.192.616-.256a4.46 4.46 0 01.666-.144 5.145 5.145 0 011.399 0c.233.032.45.08.666.144.216.064.416.16.616.256.183.111.366.223.533.367.166.144.316.303.433.48.133.175.233.383.333.606.1.224.166.463.216.719.05.255.067.543.067.846v.192c0 .32-.017.607-.067.879a3.33 3.33 0 01-.216.75c-.1.224-.2.432-.333.607a2.557 2.557 0 01-.433.495 3.173 3.173 0 01-.533.384 2.61 2.61 0 01-.616.255 4.46 4.46 0 01-.666.144 5.145 5.145 0 01-.7.048zm-8.193-5.43h-2.148v-1.694h6.378v1.693h-2.148v5.303H51.86V29.57zM46.282 35c-.25 0-.482-.016-.716-.048a3.845 3.845 0 01-.649-.144 2.368 2.368 0 01-.583-.255 2.278 2.278 0 01-.5-.384 2.42 2.42 0 01-.399-.495 3.143 3.143 0 01-.3-.623 3.331 3.331 0 01-.183-.75 7.29 7.29 0 01-.066-.895v-.176c0-.303.016-.575.066-.846.05-.256.1-.511.2-.719.083-.223.183-.415.316-.607.117-.176.267-.351.417-.479.15-.144.316-.272.5-.367.182-.112.382-.192.582-.256.2-.064.416-.112.633-.144a4.72 4.72 0 01.682-.048c.217 0 .417.016.616.032.2.016.383.064.567.112.183.048.366.112.532.176.167.08.317.16.467.255.15.096.266.224.383.352.116.128.216.287.316.447.083.16.166.335.216.543.05.192.084.415.1.639l.017.144h-2.131l-.017-.112c-.017-.08-.033-.16-.067-.224-.016-.064-.05-.127-.083-.191-.033-.048-.066-.112-.1-.144a.444.444 0 00-.133-.112l-.15-.096a.51.51 0 00-.166-.064c-.067-.016-.117-.032-.183-.032-.067 0-.117-.016-.184-.016-.1 0-.183 0-.266.016-.083.016-.166.032-.233.064s-.15.064-.2.112c-.067.048-.116.112-.183.176a1.566 1.566 0 00-.266.543 2.28 2.28 0 00-.067.383 4.05 4.05 0 00-.033.463v.208c0 .176.016.352.033.495.017.144.05.288.083.4.033.111.083.223.133.319s.1.176.15.256a.936.936 0 00.383.287c.067.032.15.048.233.064.084.016.167.016.25.016.15 0 .3-.016.416-.048a.842.842 0 00.317-.16c.083-.064.15-.16.216-.255.05-.112.1-.256.117-.416l.016-.111h2.132v.143c-.017.24-.05.448-.1.64a2.34 2.34 0 01-.5.99c-.116.127-.25.255-.383.351-.15.096-.3.192-.466.256-.166.08-.35.127-.533.175-.416.112-.816.16-1.249.16zm-7.692-1.71c.1 0 .183 0 .266-.015.083-.016.183-.032.267-.064.083-.032.166-.064.233-.112.066-.048.133-.112.2-.175a.894.894 0 00.166-.24c.05-.096.1-.208.133-.32a6.96 6.96 0 00.1-.415c.017-.16.033-.335.033-.527v-.192a4.37 4.37 0 00-.033-.495 1.567 1.567 0 00-.1-.399 1.306 1.306 0 00-.133-.303c-.05-.096-.116-.16-.166-.224-.067-.064-.134-.112-.2-.16-.067-.048-.15-.08-.233-.112-.084-.032-.184-.048-.267-.064-.083-.015-.183-.015-.266-.015-.1 0-.183 0-.267.015-.083.016-.183.032-.266.064-.083.032-.167.064-.233.112a1.751 1.751 0 00-.2.16 1.136 1.136 0 00-.166.224c-.05.095-.1.191-.134.303-.033.112-.066.24-.1.4a4.123 4.123 0 00-.033.494v.192c0 .192.017.368.033.527.017.16.05.288.1.416.034.127.084.223.134.319s.116.176.166.24c.067.063.133.127.2.175.066.048.15.08.233.112.083.032.167.048.266.064.084.016.184.016.267.016zm0 1.71c-.233 0-.466-.016-.7-.048a4.46 4.46 0 01-.666-.144 4.139 4.139 0 01-.616-.255 4.034 4.034 0 01-.532-.384 2.47 2.47 0 01-.433-.495 3.33 3.33 0 01-.55-1.358 4.846 4.846 0 01-.066-.878v-.192c0-.303.016-.575.066-.846.05-.256.117-.495.217-.719.1-.223.2-.415.333-.607.133-.176.266-.335.433-.479.166-.144.333-.272.532-.367.184-.096.383-.192.616-.256a4.46 4.46 0 01.666-.144 5.145 5.145 0 011.399 0c.233.032.45.08.666.144.217.064.416.16.6.256.183.111.366.223.532.367.167.144.317.303.433.48.134.175.233.383.333.606.1.224.167.463.217.719.05.255.066.543.066.846v.192c0 .32-.016.607-.066.879a3.33 3.33 0 01-.217.75c-.1.224-.2.432-.333.607a2.557 2.557 0 01-.433.495 3.173 3.173 0 01-.532.384 2.61 2.61 0 01-.616.255 4.46 4.46 0 01-.667.144 4.566 4.566 0 01-.682.048zm-7.376-4.424c.35 0 .582-.048.699-.144a.574.574 0 00.116-.16c.034-.064.034-.144.034-.24a.93.93 0 00-.034-.24.574.574 0 00-.116-.159.441.441 0 00-.233-.096c-.117-.032-.267-.032-.45-.032h-.982v1.087h.966v-.016zm.15 2.715c.2 0 .382-.016.516-.048a.883.883 0 00.3-.112.438.438 0 00.15-.191.746.746 0 00.05-.288.746.746 0 00-.05-.287.438.438 0 00-.15-.192.642.642 0 00-.3-.112 2.512 2.512 0 00-.533-.048h-1.1v1.278h1.116zm-1.949-5.399h2.231c.417 0 .783.048 1.1.128.316.08.582.208.782.383.4.336.616.815.616 1.422 0 .367-.1.703-.3.958a1.5 1.5 0 01-.366.352c-.05.032-.083.064-.133.08a1.726 1.726 0 01.716.48c.266.302.4.685.4 1.149 0 .32-.05.59-.167.846a1.887 1.887 0 01-.483.655 2.3 2.3 0 01-.85.415c-.332.096-.732.128-1.198.128h-3.596v-6.101a.914.914 0 01.266-.623.93.93 0 01.616-.256l.366-.016zm44.241-9.12h1.932v3.721l2.547-3.721H80v6.98h-2.081V22.03l-2.548 3.722h-1.865v-6.98h.15zm-7.742 0h1.931v3.721l2.548-3.721h1.864v6.98h-2.08V22.03l-2.548 3.722h-1.865v-6.98h.15zm-7.726 0h1.931v2.555h2.331v-2.555h2.082v6.98H62.45v-2.747h-2.33v2.747h-2.082v-6.98h.15zm-4.196 5.303c.383 0 .666-.064.816-.192a.53.53 0 00.166-.224.72.72 0 00.05-.271.72.72 0 00-.05-.272.721.721 0 00-.166-.223.815.815 0 00-.317-.144 2.347 2.347 0 00-.516-.048h-.716v1.39h.733v-.016zm-2.648-5.303h1.932v2.236h.915c.5 0 .933.048 1.316.16s.7.271.949.479c.25.208.433.463.55.767.116.287.183.623.183.974 0 .735-.25 1.31-.75 1.74-.25.209-.566.384-.949.48-.366.112-.816.16-1.315.16h-2.997v-6.996h.166zm-7.443 7.108h-.233c-.05 0-.1 0-.133-.016-.05 0-.083-.016-.116-.016l-.1-.032v-1.773l.166.032h.133c.067 0 .134 0 .2-.016.05-.016.117-.032.15-.048a.278.278 0 00.1-.096c.033-.064.083-.144.1-.24.033-.095.066-.223.083-.383.033-.16.05-.335.067-.543a9.6 9.6 0 00.033-.75c0-.272.017-.608.017-.975V19.65a.873.873 0 01.266-.607.93.93 0 01.616-.255h4.712v6.98h-2.098v-5.303h-1.548v.767c0 .495-.017.942-.034 1.357-.033.4-.066.751-.116 1.054-.05.304-.117.575-.2.8a3.077 3.077 0 01-.266.606c-.1.176-.217.32-.35.431a1.338 1.338 0 01-.433.256c-.15.048-.3.096-.466.112-.2.032-.366.032-.55.032zm-5.111-3.003h.949l-.467-1.422-.482 1.422zm1.548 1.597H38.19l-.483 1.294H35.71c.883-2.332 1.765-4.664 2.648-6.98h1.998l2.647 6.98h-2.198l-.466-1.294zm-7.76-.4v-3.61h-1.381v.272c0 .783-.033 1.47-.1 2.029a6.84 6.84 0 01-.25 1.31h1.732zm-4.461 0h.699c.033-.08.05-.159.083-.255.033-.128.067-.255.1-.4.033-.143.05-.287.083-.43.017-.144.05-.304.05-.464.017-.16.034-.32.05-.495.017-.175.017-.335.033-.495.017-.176.017-.335.017-.511V19.65c.017-.271.117-.495.267-.639a.93.93 0 01.616-.255h4.546v5.303h.715v2.54h-1.831v-.863h-3.713v.862H28v-2.54h.117v.017zM50.329 9.796h1.931v3.722l2.548-3.722h1.864v6.98h-2.08V13.07l-2.548 3.721h-1.849V9.795h.134zm-4.696 5.415c.1 0 .183 0 .266-.016.084-.016.184-.032.267-.064.083-.032.166-.064.233-.112a.985.985 0 00.2-.175.894.894 0 00.166-.24c.05-.096.1-.208.133-.32a6.96 6.96 0 00.1-.415 4.88 4.88 0 00.034-.527v-.192a4.37 4.37 0 00-.034-.495 1.567 1.567 0 00-.1-.399 1.306 1.306 0 00-.133-.303.804.804 0 00-.166-.224 1.75 1.75 0 00-.2-.16c-.067-.048-.15-.08-.233-.112-.083-.032-.183-.048-.267-.064-.083-.016-.183-.016-.266-.016-.1 0-.183 0-.266.016-.084.016-.184.032-.267.064-.083.032-.166.064-.233.112a1.75 1.75 0 00-.2.16 1.162 1.162 0 00-.166.224c-.05.095-.1.191-.133.303-.034.112-.067.24-.1.4a4.123 4.123 0 00-.034.494v.192c0 .192.017.367.034.527.016.16.05.288.1.416.033.127.083.223.133.319s.116.176.166.24c.067.063.134.127.2.175a1.29 1.29 0 00.5.176c.083 0 .183.016.266.016zm0 1.693c-.233 0-.466-.016-.7-.048a4.961 4.961 0 01-.665-.144 4.139 4.139 0 01-.616-.255 4.034 4.034 0 01-.533-.384 2.47 2.47 0 01-.433-.495 3.33 3.33 0 01-.55-1.358 4.846 4.846 0 01-.066-.878v-.192c0-.303.016-.575.066-.846.05-.256.117-.495.217-.719.1-.223.2-.415.333-.607.133-.176.266-.335.433-.479.166-.144.333-.272.533-.367.183-.096.4-.192.616-.256a4.46 4.46 0 01.666-.144 5.145 5.145 0 011.399 0c.216.032.449.08.665.144a3.323 3.323 0 011.133.623c.166.144.316.303.433.48.133.175.233.383.333.606.1.224.166.463.216.719.05.255.067.543.067.846v.192c0 .32-.017.607-.067.879a3.33 3.33 0 01-.216.75c-.1.224-.2.432-.333.607a2.557 2.557 0 01-.433.495 3.173 3.173 0 01-.533.384 2.61 2.61 0 01-.616.255 4.46 4.46 0 01-.666.144 4.566 4.566 0 01-.683.048zm-7.376-4.424c.35 0 .583-.048.7-.144.05-.048.099-.096.116-.16.033-.064.033-.144.033-.24a.93.93 0 00-.033-.24.574.574 0 00-.117-.159.441.441 0 00-.233-.096c-.117-.032-.266-.032-.45-.032h-.982v1.087h.966v-.016zm.15 2.715c.2 0 .383-.016.516-.048a.883.883 0 00.3-.112.438.438 0 00.15-.191.746.746 0 00.05-.288.746.746 0 00-.05-.287.438.438 0 00-.15-.192.642.642 0 00-.3-.112 2.512 2.512 0 00-.533-.048h-1.099v1.278h1.116zm-3.064-5.399h3.363c.417 0 .783.048 1.1.128.316.08.582.208.782.383.4.336.616.815.616 1.422 0 .367-.1.703-.3.958a1.5 1.5 0 01-.366.352c-.05.032-.083.064-.133.08a1.726 1.726 0 01.716.48c.266.302.4.686.4 1.149 0 .32-.05.59-.167.846a1.887 1.887 0 01-.483.655 2.3 2.3 0 01-.85.415c-.332.096-.732.128-1.198.128H35.21V9.795h.133zm39.345 7.46l.367-.655s.616.175 1.681.878c.95-.303 1.932-1.485 1.932-1.485l.583.415s-.75 1.485-1.732 2.108c-.216.048-1.132.08-1.548 0 0 .016-.517-.814-1.283-1.262zM51.394 8.261l.366-.655s.617.176 1.682.878C54.392 8.182 55.374 7 55.374 7l.582.415s-.749 1.486-1.731 2.109c-.217.048-1.132.08-1.549 0 0 .016-.533-.83-1.282-1.262zm-21.18 3.226h-2.147V9.795h6.377v1.693h-2.148v5.303h-2.081v-5.303z"/></g></symbol></svg>