<svg xmlns="http://www.w3.org/2000/svg" width="32" height="32" viewBox="0 0 32 32">
  <path fill-rule="evenodd" d="M27,10.116 C26.191,10.475 25.321,10.718 24.408,10.827 C25.34,10.268 26.055,9.384 26.392,8.33 C25.52,8.847 24.554,9.223 23.526,9.425 C22.703,8.548 21.53,8 20.231,8 C17.739,8 15.718,10.021 15.718,12.513 C15.718,12.867 15.758,13.211 15.835,13.542 C12.084,13.354 8.758,11.557 6.532,8.826 C6.143,9.492 5.921,10.268 5.921,11.095 C5.921,12.661 6.717,14.042 7.928,14.852 C7.189,14.828 6.493,14.625 5.884,14.287 L5.884,14.344 C5.884,16.531 7.44,18.355 9.504,18.77 C9.126,18.873 8.727,18.928 8.315,18.928 C8.024,18.928 7.742,18.9 7.466,18.847 C8.04,20.64 9.707,21.945 11.682,21.982 C10.138,23.192 8.191,23.914 6.077,23.914 C5.712,23.914 5.353,23.892 5,23.851 C6.997,25.131 9.37,25.879 11.919,25.879 C20.221,25.879 24.761,19.001 24.761,13.037 C24.761,12.841 24.757,12.646 24.748,12.453 C25.63,11.816 26.395,11.021 27,10.116 L27,10.116 Z"/>
</svg>
