<svg xmlns="http://www.w3.org/2000/svg" width="32" height="32" viewBox="0 0 32 32">
  <path fill-rule="evenodd" d="M15.7315333,22.4009667 L17.0405,22.4009667 C17.0405,22.4009667 17.4358,22.3574 17.6379333,22.1399333 C17.8237,21.9400667 17.8178,21.5649667 17.8178,21.5649667 C17.8178,21.5649667 17.7921667,19.8085667 18.6072333,19.5499 C19.411,19.295 20.4429,21.2474 21.5365667,21.9982 C22.3636333,22.5661667 22.9921333,22.4418667 22.9921333,22.4418667 L25.9167667,22.4009667 C25.9167667,22.4009667 27.4466,22.3065667 26.7211667,21.1037333 C26.6617667,21.0055 26.2985333,20.2139667 24.5465667,18.5877333 C22.7125667,16.8856667 22.9584333,17.1610333 25.1674333,14.2168 C26.5127,12.4238 27.0504333,11.3292 26.8824,10.8604333 C26.7223,10.4138 25.7327667,10.5317667 25.7327667,10.5317667 L22.4399,10.5521333 C22.4399,10.5521333 22.1956333,10.5188667 22.0147,10.6271333 C21.8377,10.7330333 21.7241333,10.9804333 21.7241333,10.9804333 C21.7241333,10.9804333 21.2027333,12.3678333 20.5079333,13.5479 C19.0416667,16.0376667 18.4552667,16.1694667 18.2155667,16.0146333 C17.6579333,15.6542667 17.7972667,14.5672333 17.7972667,13.7947667 C17.7972667,11.3818 18.1632667,10.3757667 17.0845667,10.1153 C16.7266667,10.0289333 16.4630333,9.9718 15.5475667,9.96246667 C14.3725667,9.95053333 13.3783,9.96606667 12.8152,10.2419333 C12.4405667,10.4254 12.1515333,10.8341333 12.3276667,10.8576667 C12.5453333,10.8866333 13.0381,10.9906667 13.2994,11.3461667 C13.6369333,11.8053667 13.6251333,12.8362667 13.6251333,12.8362667 C13.6251333,12.8362667 13.8190667,15.6767 13.1723,16.0294333 C12.7285,16.2714333 12.1195667,15.7774 10.8123,13.5185333 C10.1426,12.3614667 9.6368,11.0823667 9.6368,11.0823667 C9.6368,11.0823667 9.5394,10.8433667 9.36543333,10.7154333 C9.15443333,10.5604333 8.8596,10.5113 8.8596,10.5113 L5.7304,10.5317333 C5.7304,10.5317333 5.26073333,10.5448667 5.08816667,10.7491 C4.93463333,10.9309333 5.0759,11.3066 5.0759,11.3066 C5.0759,11.3066 7.52556667,17.038 10.2996,19.9263333 C12.8434333,22.5748 15.7315333,22.4009667 15.7315333,22.4009667"/>
</svg>
