<svg xmlns="http://www.w3.org/2000/svg" width="80" height="37" viewBox="0 0 80 37">
  <g fill="none">
    <path fill="#8CD1E7" d="M8.4404934,33.3546798 C8.52349263,33.4540976 8.6562914,33.5369458 8.8388897,33.5866547 L8.8388897,33.5866547 C9.0546877,33.6363636 9.23728601,33.7854904 9.33688508,33.9511867 C9.43648416,34.1168831 9.48628369,34.3322884 9.43648416,34.5476937 L9.43648416,34.5642633 C9.38668462,34.7465293 9.28708554,34.8956561 9.15428678,35.0116435 C9.00488816,35.127631 8.8388897,35.1939095 8.6562914,35.1939095 C8.62309171,35.1939095 8.58989202,35.1939095 8.55669232,35.1939095 L8.55669232,35.1939095 C8.52349263,35.1939095 8.49029294,35.1773399 8.45709325,35.1773399 L8.45709325,35.1773399 C7.87609864,35.0282132 7.47770234,34.7465293 7.19550496,34.4151366 C6.79710866,33.9346171 6.64771005,33.3546798 6.64771005,33.0067174 L6.64771005,32.8741603 L8.15829602,32.841021 L8.15829602,32.9570085 L8.29109479,32.9570085 C8.2578951,32.9901478 8.29109479,33.1889834 8.4404934,33.3546798 M26.7999229,33.4209584 L26.7999229,33.437528 C26.8497225,33.5700851 26.8663223,33.7523511 26.899522,34.0008957 C26.9161219,34.2328706 26.9327217,34.5145544 26.9327217,34.8459472 C26.9327217,34.8956561 26.9327217,34.9287953 26.9327217,34.9785043 L26.9327217,34.9785043 L26.9327217,37 L10.3494757,37 L10.1502775,36.4697716 C10.1336777,36.4200627 10.0008789,36.0555307 9.95107938,35.5418719 C9.91787969,35.2601881 9.90127984,34.9287953 9.93447953,34.5642633 C9.98427907,34.0008957 10.1502775,33.3215405 10.5984734,32.6421854 C10.9304703,32.1285266 11.4118658,31.6314375 12.1256592,31.200627 C12.1256592,31.200627 12.1920586,31.1674877 12.2086584,31.150918 L14.0346415,16.0559785 L12.7564533,16.0559785 C12.5240555,16.0559785 12.3248573,15.9565607 12.1754587,15.8240036 C12.0260601,15.6748768 11.9430609,15.4760412 11.9430609,15.2440663 L11.9430609,12.377519 C11.9430609,12.1455441 12.04266,11.9467085 12.1754587,11.7975817 L12.1754587,11.7975817 C12.3248573,11.648455 12.5240555,11.5656068 12.7564533,11.5656068 L13.3540478,11.5656068 L13.3540478,7.77115987 L12.9224518,7.77115987 C12.6900539,7.77115987 12.4908558,7.67174205 12.3414572,7.53918495 C12.1920586,7.39005822 12.1090593,7.19122257 12.1090593,6.95924765 C12.1090593,6.72727273 12.2086584,6.52843708 12.3414572,6.37931034 C12.4908558,6.23018361 12.6900539,6.14733542 12.9224518,6.14733542 L13.2710486,6.14733542 C13.5034464,5.30228392 13.9350424,4.54008061 14.4994371,3.91043439 C15.0804318,3.26421854 15.810825,2.76712942 16.6242174,2.45230631 L16.6242174,0.811912226 C16.6242174,0.579937304 16.7238165,0.381101657 16.8566153,0.231974922 C17.0060139,0.0828481863 17.205212,0 17.4376099,0 L19.8113878,0 C20.0437857,0 20.2429838,0.0994178236 20.3923824,0.231974922 C20.541781,0.381101657 20.6247803,0.579937304 20.6247803,0.811912226 L20.6247803,2.43573668 C21.4381727,2.75055979 22.1685659,3.26421854 22.7495605,3.89386476 C23.3139553,4.52351097 23.7455513,5.28571429 23.9779491,6.13076579 L24.1107479,6.13076579 C24.3431457,6.13076579 24.5423439,6.23018361 24.6917425,6.36274071 L24.6917425,6.36274071 C24.8411411,6.51186744 24.9241404,6.71070309 24.9241404,6.94267801 C24.9241404,7.17465293 24.8245413,7.37348858 24.6917425,7.52261532 C24.5423439,7.67174205 24.3431457,7.75459024 24.1107479,7.75459024 L23.6791519,7.75459024 L23.6791519,11.5656068 L24.2767464,11.5656068 C24.5091442,11.5656068 24.7083424,11.6650246 24.857741,11.7975817 C25.0071396,11.9467085 25.0901388,12.1455441 25.0901388,12.377519 L25.0901388,15.2606359 C25.0901388,15.4926108 24.9905397,15.6914465 24.857741,15.8405732 C24.7083424,15.9897 24.5091442,16.0725481 24.2767464,16.0725481 L23.0649576,16.0725481 L25.0237394,32.1450963 C25.3391365,32.1616659 25.6545336,32.2610837 25.9201311,32.4102105 C26.2189283,32.5924765 26.4845259,32.841021 26.6671242,33.1392745 C26.6671242,33.1392745 26.683724,33.1558442 26.683724,33.1724138 C26.7003239,33.2055531 26.7169237,33.2386923 26.7335236,33.2884013 C26.7501234,33.3381102 26.7667232,33.3712494 26.7999229,33.4209584 C26.7833231,33.4209584 26.7999229,33.4209584 26.7999229,33.4209584 Z M18.9979954,1.62382445 L18.2510023,1.62382445 L18.2510023,2.07120466 C18.284202,2.07120466 18.3340015,2.07120466 18.3672012,2.07120466 C18.4502005,2.07120466 18.5497995,2.07120466 18.6161989,2.07120466 C18.6991982,2.07120466 18.7821974,2.07120466 18.8651966,2.07120466 C18.8983963,2.07120466 18.9481958,2.07120466 18.9813955,2.07120466 L18.9813955,1.62382445 L18.9979954,1.62382445 Z M20.8903778,4.40752351 C20.2429838,3.94357367 19.4627911,3.67845947 18.6327988,3.67845947 C17.8028065,3.67845947 17.0060139,3.94357367 16.3752197,4.40752351 C15.7610254,4.83833408 15.2796299,5.43484102 14.9974325,6.13076579 L22.2847649,6.13076579 C21.9859676,5.43484102 21.5045721,4.83833408 20.8903778,4.40752351 Z M22.0689669,7.77115987 L14.9808327,7.77115987 L14.9808327,11.5656068 L22.0689669,11.5656068 L22.0689669,7.77115987 Z M23.4799538,13.1894313 L13.5698458,13.1894313 L13.5698458,14.4487237 L23.4799538,14.4487237 L23.4799538,13.1894313 Z M15.3958288,18.4585759 L18.7489977,16.0891178 L15.6780262,16.0891178 L15.3958288,18.4585759 Z M11.9928604,33.5203762 C11.7604626,33.8683386 11.6276638,34.2494402 11.5778643,34.6802508 C11.5612644,34.8128079 11.5612644,34.9619346 11.5612644,35.0779221 C11.5612644,35.1773399 11.5778643,35.2933274 11.5778643,35.3761755 L21.1393755,35.3761755 L21.1393755,34.5642633 C21.1393755,34.2494402 21.0231766,33.9511867 20.8239784,33.7192118 C20.6247803,33.4872369 20.3591827,33.3215405 20.0437857,33.2718316 C19.5291904,33.1889834 19.0809946,33.1061352 18.6991982,33.0564263 C18.3174017,32.9901478 18.0020046,32.9404389 17.7198072,32.9072996 C17.3214109,32.8575907 16.9230146,32.7416032 16.4914186,32.6256158 L16.4914186,32.6256158 C15.910424,32.476489 15.2962297,32.3107927 14.6820355,32.2610837 C14.084441,32.2113748 13.5034464,32.294223 12.9722513,32.6256158 C12.5572552,32.8741603 12.2252583,33.1724138 11.9928604,33.5203762 Z M22.7661604,35.3761755 L25.289337,35.3761755 L25.289337,34.166592 C25.289337,34.0671742 25.2395374,33.9677564 25.173138,33.9014778 C25.1067387,33.8351993 25.0071396,33.7854904 24.9075405,33.7854904 L23.5297533,33.7854904 C23.2973555,33.7854904 23.0981573,33.6860725 22.9487587,33.5535155 C22.7993601,33.4043887 22.7163609,33.2055531 22.7163609,32.9735781 C22.7163609,32.7416032 22.7993601,32.5427676 22.9487587,32.3936408 C23.0649576,32.2776534 23.2143562,32.1948052 23.3803547,32.1616659 L22.6665613,26.312584 L18.3008018,29.4276758 C18.2344025,29.4773847 18.1514032,29.510524 18.068404,29.5436632 C17.9854048,29.5768025 17.9024055,29.5768025 17.8194063,29.5768025 C17.6866076,29.5768025 17.5538088,29.5436632 17.4376099,29.4773847 C17.3214109,29.4276758 17.2218119,29.3282579 17.1388126,29.2288401 C17.0060139,29.0465741 16.9728142,28.8311688 17.0060139,28.6157635 C17.0392136,28.4169279 17.1554125,28.2180923 17.3380108,28.0855352 L22.4341635,24.4733542 L21.4215729,16.1553963 L15.0970316,20.6291984 L14.6488358,24.3242275 L18.0186045,21.9381997 C18.2012028,21.8056426 18.4170008,21.7559337 18.6327988,21.8056426 C18.8319969,21.8387819 19.0311951,21.9547694 19.1639938,22.1370354 C19.2967926,22.3193014 19.3299923,22.5347067 19.2967926,22.750112 C19.2635929,22.9489476 19.147394,23.1477833 18.9647957,23.2803403 L14.3832382,26.5279893 L13.8852428,30.6372593 C14.3998381,30.5875504 14.9144333,30.6206897 15.4124287,30.7035378 C15.9436237,30.786386 16.4416191,30.9189431 16.889815,31.0515002 L16.889815,31.0515002 C17.2716114,31.150918 17.636808,31.2503359 17.9356052,31.3000448 C18.2012028,31.3331841 18.5331997,31.382893 18.931596,31.4491715 C19.3465921,31.5154501 19.794788,31.5982983 20.2927834,31.6811464 C21.0065767,31.7971339 21.620771,32.1616659 22.052367,32.6753247 C22.483963,33.1889834 22.7495605,33.8517689 22.7495605,34.580833 L22.7495605,35.3761755 L22.7661604,35.3761755 Z M9.10448724,8.30138827 L4.40673086,6.71070309 C4.19093286,6.64442454 4.0249344,6.47872817 3.94193517,6.29646216 C3.8423361,6.11419615 3.82573625,5.88222123 3.90873548,5.66681594 C3.97513486,5.45141066 4.14113332,5.28571429 4.32373163,5.2028661 C4.50632993,5.10344828 4.73872777,5.08687864 4.95452577,5.16972682 L9.63568231,6.760412 C9.8514803,6.82669055 10.0174788,6.99238692 10.100478,7.17465293 C10.2000771,7.35691894 10.2166769,7.58889386 10.1336777,7.80429915 C10.0838781,7.96999552 9.96767922,8.10255262 9.83488046,8.20197044 C9.70208169,8.30138827 9.53608323,8.35109718 9.35348493,8.35109718 C9.30368539,8.35109718 9.2704857,8.35109718 9.22068616,8.33452754 C9.18748647,8.33452754 9.15428678,8.3179579 9.10448724,8.30138827 Z M1.48515798,5.73309449 L0.555566616,5.41827138 C0.33976862,5.35199283 0.173770161,5.18629646 0.0907709317,5.00403045 C-0.00882814351,4.82176444 -0.0254279894,4.58978952 0.05757124,4.37438424 C0.123970623,4.15897895 0.289969082,3.99328258 0.472567387,3.91043439 C0.655165691,3.81101657 0.887563533,3.79444693 1.10336153,3.87729512 L2.0329529,4.19211823 C2.24875089,4.25839678 2.41474935,4.42409315 2.49774858,4.60635916 C2.59734766,4.78862517 2.6139475,5.02060009 2.53094827,5.23600537 C2.48114874,5.40170175 2.36494982,5.53425884 2.23215105,5.63367667 C2.09935228,5.73309449 1.93335382,5.7828034 1.75075552,5.7828034 C1.70095598,5.7828034 1.66775629,5.7828034 1.61795675,5.76623377 C1.58475706,5.74966413 1.53495752,5.74966413 1.48515798,5.73309449 L1.48515798,5.73309449 Z M9.63568231,11.9301388 L1.08676168,14.8298253 C1.03696215,14.846395 1.00376245,14.8629646 0.953962917,14.8629646 L0.953962917,14.8629646 C0.904163379,14.8629646 0.870963688,14.8795343 0.82116415,14.8795343 C0.655165691,14.8795343 0.489167233,14.8298253 0.33976862,14.7304075 C0.206969853,14.6309897 0.107370778,14.4984326 0.0409713941,14.3327362 C-0.0254279894,14.1173309 -0.00882814351,13.9019257 0.0741710858,13.70309 C0.173770161,13.520824 0.323168774,13.3716973 0.53896677,13.2888491 L9.07128755,10.4057322 C9.28708554,10.3394536 9.50288354,10.3560233 9.70208169,10.4388715 C9.88467999,10.5382893 10.0340786,10.687416 10.1170778,10.9028213 L10.1170778,10.9028213 C10.1834772,11.1182266 10.1668774,11.3336319 10.0838781,11.5324675 C10.0008789,11.7147335 9.8514803,11.8638603 9.63568231,11.9301388 Z M27.7959137,8.33452754 C27.7461141,8.33452754 27.7129145,8.35109718 27.6631149,8.35109718 C27.4971165,8.35109718 27.331118,8.30138827 27.1817194,8.20197044 C27.0489206,8.10255262 26.9493215,7.96999552 26.8829222,7.80429915 C26.8165228,7.58889386 26.8331226,7.37348858 26.9161219,7.17465293 C27.0157209,6.99238692 27.1651195,6.84326019 27.3809175,6.760412 L35.9132383,3.87729512 C36.1290363,3.81101657 36.3448343,3.82758621 36.5440325,3.91043439 C36.7266308,4.00985222 36.8760294,4.15897895 36.9590286,4.37438424 L36.9590286,4.37438424 C37.025428,4.58978952 37.0088281,4.80519481 36.9258289,5.00403045 C36.8262298,5.18629646 36.6768312,5.3354232 36.4610332,5.41827138 L27.9287125,8.30138827 C27.8789129,8.3179579 27.8291134,8.33452754 27.7959137,8.33452754 Z M18.1846029,8.8481863 L18.8983963,8.8481863 C19.1307941,8.8481863 19.3299923,8.94760412 19.4793909,9.08016122 C19.6287895,9.22928795 19.7117887,9.4281236 19.7117887,9.66009852 C19.7117887,9.89207344 19.6121897,10.0909091 19.4793909,10.2400358 C19.3299923,10.3891626 19.1307941,10.4720107 18.8983963,10.4720107 L18.1846029,10.4720107 C17.9522051,10.4720107 17.7530069,10.3725929 17.6036083,10.2400358 C17.4542097,10.0909091 17.3712105,9.89207344 17.3712105,9.66009852 C17.3712105,9.4281236 17.4708096,9.22928795 17.6036083,9.08016122 C17.7530069,8.94760412 17.9688049,8.8481863 18.1846029,8.8481863 Z M7.59390126,29.278549 C8.54009248,29.3613972 9.40328446,29.7259292 10.0672783,30.3390058 L10.0672783,30.3390058 C10.2332768,30.4881326 10.316276,30.7035378 10.316276,30.9023735 C10.316276,31.1177788 10.2498766,31.3166144 10.100478,31.4823108 L10.100478,31.4823108 C9.95107938,31.6480072 9.73528138,31.7308554 9.53608323,31.7308554 C9.32028523,31.7308554 9.12108708,31.6645768 8.95508863,31.5154501 C8.54009248,31.1343484 7.97569772,30.9189431 7.34490358,30.8692342 C6.69750959,30.8195253 5.96711637,30.968652 5.23672315,31.2834751 C4.50632993,31.6148679 3.89213564,32.0456785 3.39414026,32.5096283 C2.41474935,33.4043887 1.93335382,34.3157188 1.93335382,34.3322884 C1.86695444,34.4648455 1.75075552,34.580833 1.6345566,34.6471115 C1.50175783,34.7299597 1.35235922,34.763099 1.2029606,34.763099 C1.13656122,34.763099 1.07016184,34.763099 1.00376245,34.7465293 C0.937363071,34.7299597 0.887563533,34.7133901 0.82116415,34.6802508 C0.621966,34.580833 0.489167233,34.398567 0.422767849,34.1997313 C0.356368466,34.0008957 0.372968311,33.7854904 0.472567387,33.5866547 C0.505767078,33.5203762 1.08676168,32.4267801 2.26535074,31.3331841 C2.87954504,30.7698164 3.64313795,30.2230184 4.57272932,29.8087774 C5.60191976,29.3613972 6.64771005,29.1957009 7.59390126,29.278549 Z"/>
    <path fill="#F8F5F0" d="M64.7313481,27.8921848 L66.6794749,27.8921848 L66.6794749,30.5596121 L66.9791867,30.5596121 L69.1271214,27.8921848 L71.4415626,27.8921848 L68.6276017,31.1665716 L71.5248159,34.8722191 L69.0771694,34.8722191 L66.962536,32.029093 L66.6794749,32.029093 L66.6794749,34.8722191 L64.5981428,34.8722191 L64.5981428,27.8921848 L64.7313481,27.8921848 Z M60.0525136,33.2909298 C60.1524175,33.2909298 60.2356708,33.2909298 60.3189241,33.2749572 C60.4021774,33.2589846 60.5020813,33.243012 60.5853346,33.2110667 C60.6685879,33.1791215 60.7518412,33.1471763 60.8184438,33.0992584 C60.8850464,33.0513406 60.9516491,32.9874501 61.0182517,32.9235596 C61.0848543,32.8596691 61.1348063,32.779806 61.1847582,32.6839703 C61.2347102,32.5881346 61.2846622,32.4763263 61.3179635,32.364518 C61.3512648,32.236737 61.3845661,32.1089561 61.4178674,31.9492299 C61.4345181,31.7895037 61.4511687,31.6138049 61.4511687,31.4221335 L61.4511687,31.2304621 C61.4511687,31.0547633 61.4345181,30.8790645 61.4178674,30.7353109 C61.4012168,30.5915573 61.3679155,30.4637764 61.3179635,30.3359954 C61.2846622,30.2241871 61.2347102,30.1123788 61.1847582,30.0325157 C61.1348063,29.93668 61.0682037,29.8727895 61.0182517,29.808899 C60.9516491,29.7450086 60.8850464,29.6970907 60.8184438,29.6491728 C60.7518412,29.601255 60.6685879,29.5693098 60.5853346,29.5373645 C60.5020813,29.5054193 60.4021774,29.4894467 60.3189241,29.473474 C60.2356708,29.4575014 60.1357669,29.4575014 60.0525136,29.4575014 C59.9526097,29.4575014 59.8693564,29.4575014 59.7861031,29.473474 C59.7028498,29.4894467 59.6029459,29.5054193 59.5196926,29.5373645 C59.4364393,29.5693098 59.353186,29.601255 59.2865834,29.6491728 C59.2199808,29.6970907 59.1533782,29.7450086 59.0867755,29.808899 C59.0201729,29.8727895 58.9702209,29.9526526 58.920269,30.0325157 C58.870317,30.1283514 58.820365,30.2241871 58.7870637,30.3359954 C58.7537624,30.4478038 58.7204611,30.5755847 58.6871598,30.7353109 C58.6705091,30.8790645 58.6538585,31.0387906 58.6538585,31.2304621 L58.6538585,31.4221335 C58.6538585,31.6138049 58.6705091,31.7895037 58.6871598,31.9492299 C58.7038104,32.1089561 58.7371118,32.236737 58.7870637,32.364518 C58.820365,32.4922989 58.870317,32.5881346 58.920269,32.6839703 C58.9702209,32.779806 59.0368236,32.8596691 59.0867755,32.9235596 C59.1533782,32.9874501 59.2199808,33.0513406 59.2865834,33.0992584 L59.2865834,33.0992584 C59.353186,33.1471763 59.4364393,33.1791215 59.5196926,33.2110667 C59.6029459,33.243012 59.6861992,33.2589846 59.7861031,33.2749572 C59.8527057,33.2909298 59.9526097,33.2909298 60.0525136,33.2909298 Z M60.0525136,35 C59.8194044,35 59.5862952,34.9840274 59.353186,34.9520821 C59.1200768,34.9201369 58.9036183,34.8722191 58.6871598,34.8083286 C58.4707012,34.7444381 58.2708934,34.6486024 58.0710855,34.5527667 C57.8879283,34.4409584 57.7047711,34.3131774 57.5382645,34.1694238 C57.3717579,34.0256703 57.221902,33.8499715 57.1053474,33.6742727 C56.9721422,33.4826013 56.8722382,33.2909298 56.7723343,33.0673132 C56.6724304,32.8436965 56.6058277,32.5881346 56.5558758,32.3166001 C56.5059238,32.0450656 56.4892731,31.7575585 56.4892731,31.4381061 L56.4892731,31.2464347 C56.4892731,30.9429549 56.5059238,30.6714204 56.5558758,30.3998859 C56.6058277,30.144324 56.6724304,29.9047347 56.7723343,29.6811181 C56.8722382,29.4575014 56.9721422,29.26583 57.1053474,29.0741586 C57.2385527,28.8984598 57.3717579,28.7387336 57.5382645,28.59498 C57.7047711,28.4512265 57.8712776,28.3234455 58.0710855,28.2276098 C58.2542427,28.1317741 58.4540506,28.0359384 58.6871598,27.9720479 C58.9036183,27.9081574 59.1200768,27.8602396 59.353186,27.8282944 C59.5862952,27.7963491 59.8027538,27.7803765 60.0525136,27.7803765 C60.2856228,27.7803765 60.518732,27.7963491 60.7518412,27.8282944 C60.9849504,27.8602396 61.2014089,27.9081574 61.4178674,27.9720479 C61.634326,28.0359384 61.8341338,28.1317741 62.0339417,28.2276098 C62.2170989,28.3394181 62.4002562,28.4512265 62.5667627,28.59498 C62.7332693,28.7387336 62.8831252,28.8984598 62.9996798,29.0741586 C63.132885,29.2498574 63.232789,29.4575014 63.3326929,29.6811181 C63.4325969,29.9047347 63.4991995,30.144324 63.5491515,30.3998859 C63.5991034,30.6554478 63.6157541,30.9429549 63.6157541,31.2464347 L63.6157541,31.4381061 C63.6157541,31.7575585 63.5991034,32.0450656 63.5491515,32.3166001 C63.4991995,32.5881346 63.4325969,32.8436965 63.3326929,33.0673132 C63.232789,33.2909298 63.132885,33.4985739 62.9996798,33.6742727 C62.8664745,33.8659441 62.7332693,34.0256703 62.5667627,34.1694238 C62.4002562,34.3131774 62.2337496,34.4409584 62.0339417,34.5527667 C61.8507845,34.664575 61.634326,34.7444381 61.4178674,34.8083286 C61.2014089,34.8722191 60.9849504,34.9201369 60.7518412,34.9520821 C60.518732,34.9840274 60.2856228,35 60.0525136,35 Z M51.8603907,29.5693098 L49.712456,29.5693098 L49.712456,27.8762122 L56.0896574,27.8762122 L56.0896574,29.5693098 L53.9417227,29.5693098 L53.9417227,34.8722191 L51.8603907,34.8722191 L51.8603907,29.5693098 Z M46.2824207,35 C46.0326609,35 45.7995517,34.9840274 45.5664425,34.9520821 C45.3333333,34.9201369 45.1168748,34.8722191 44.9170669,34.8083286 C44.7006084,34.7444381 44.5174512,34.664575 44.3342939,34.5527667 C44.1511367,34.4409584 43.9846302,34.32915 43.8347743,34.1694238 C43.6849183,34.0256703 43.5517131,33.8659441 43.4351585,33.6742727 C43.3186039,33.4826013 43.2187,33.2909298 43.1354467,33.0513406 C43.0521934,32.8277239 42.9855908,32.572162 42.9522895,32.3006275 C42.9189882,32.029093 42.8856868,31.7256132 42.8856868,31.4061609 L42.8856868,31.2304621 C42.8856868,30.9269823 42.9023375,30.6554478 42.9522895,30.3839133 C43.0022414,30.1283514 43.0521934,29.8727895 43.1520973,29.6651455 C43.2353506,29.4415288 43.3352546,29.2498574 43.4684598,29.058186 C43.5850144,28.8824872 43.7348703,28.7067884 43.8847262,28.5790074 C44.0345821,28.4352539 44.2010887,28.3074729 44.3842459,28.2116372 C44.5674031,28.0998289 44.767211,28.0199658 44.9670189,27.9560753 C45.1668268,27.8921848 45.3832853,27.844267 45.5997438,27.8123217 C45.8162024,27.7803765 46.0493116,27.7644039 46.2824207,27.7644039 C46.4988793,27.7644039 46.6986872,27.7803765 46.898495,27.7963491 C47.0983029,27.8123217 47.2814601,27.8602396 47.4646174,27.9081574 C47.6477746,27.9560753 47.8309318,28.0199658 47.9974384,28.0838562 C48.1639449,28.1637193 48.3138008,28.2435824 48.4636567,28.3394181 C48.6135126,28.4352539 48.7300672,28.5630348 48.8466218,28.6908157 C48.9631764,28.8185967 49.0630804,28.9783229 49.1629843,29.1380491 C49.2462376,29.2977752 49.3294909,29.473474 49.3794428,29.6811181 C49.4293948,29.8727895 49.4626961,30.0964062 49.4793468,30.3200228 L49.4959974,30.4637764 L47.3647134,30.4637764 L47.3480628,30.3519681 C47.3314121,30.272105 47.3147614,30.1922419 47.2814601,30.1283514 C47.2648095,30.0644609 47.2315082,30.0005705 47.1982069,29.93668 C47.1649055,29.8887621 47.1316042,29.8248716 47.0983029,29.7929264 C47.0650016,29.7450086 47.0150496,29.7130633 46.9650977,29.6811181 C46.9151457,29.6491728 46.8651937,29.6172276 46.8152418,29.5852824 C46.7652898,29.5533371 46.7153378,29.5373645 46.6487352,29.5213919 C46.5821326,29.5054193 46.5321806,29.4894467 46.465578,29.4894467 C46.3989753,29.4894467 46.3490234,29.473474 46.2824207,29.473474 C46.1825168,29.473474 46.0992635,29.473474 46.0160102,29.4894467 C45.932757,29.5054193 45.8495037,29.5213919 45.7829011,29.5533371 C45.7162984,29.5852824 45.6330451,29.6172276 45.5830932,29.6651455 C45.5164906,29.7130633 45.4665386,29.7769538 45.399936,29.8408443 C45.349984,29.9047347 45.300032,29.9845978 45.2500801,30.0804335 C45.2001281,30.1762693 45.1668268,30.272105 45.1335255,30.3839133 C45.1002241,30.4957216 45.0835735,30.6235026 45.0669228,30.7672561 C45.0502722,30.9110097 45.0336215,31.0707359 45.0336215,31.2304621 L45.0336215,31.4381061 C45.0336215,31.6138049 45.0502722,31.7895037 45.0669228,31.9332573 C45.0835735,32.0770108 45.1168748,32.2207644 45.1501761,32.3325727 C45.1834774,32.4443811 45.2334294,32.5561894 45.2833814,32.6520251 C45.3333333,32.7478608 45.3832853,32.8277239 45.4332373,32.907587 C45.4831892,32.9714775 45.5497919,33.0353679 45.6163945,33.0832858 C45.6829971,33.1312037 45.7495997,33.1631489 45.8162024,33.1950941 C45.882805,33.2270394 45.9660583,33.243012 46.0493116,33.2589846 C46.1325648,33.2749572 46.2158181,33.2749572 46.2990714,33.2749572 C46.4489273,33.2749572 46.5987832,33.2589846 46.7153378,33.2270394 C46.8318924,33.1950941 46.9317963,33.1471763 47.0317003,33.0673132 C47.1149536,33.0034227 47.1815562,32.907587 47.2481588,32.8117513 C47.2981108,32.699943 47.3480628,32.5561894 47.3647134,32.3964632 L47.3813641,32.2846549 L49.5126481,32.2846549 L49.5126481,32.4284084 C49.4959974,32.6679977 49.4626961,32.8756418 49.4127442,33.0673132 C49.3627922,33.2749572 49.2961896,33.450656 49.2129363,33.6103822 C49.129683,33.7701084 49.0297791,33.913862 48.9132245,34.0576155 C48.7966699,34.1853965 48.6634646,34.3131774 48.5302594,34.4090131 C48.3804035,34.5048488 48.2305476,34.6006845 48.064041,34.664575 C47.8975344,34.7444381 47.7143772,34.792356 47.53122,34.8402738 C47.1149536,34.9520821 46.7153378,35 46.2824207,35 Z M38.5898175,33.2909298 C38.6897214,33.2909298 38.7729747,33.2909298 38.856228,33.2749572 C38.9394813,33.2589846 39.0393852,33.243012 39.1226385,33.2110667 C39.2058918,33.1791215 39.2891451,33.1471763 39.3557477,33.0992584 C39.4223503,33.0513406 39.4889529,32.9874501 39.5555556,32.9235596 C39.6221582,32.8596691 39.6721102,32.779806 39.7220621,32.6839703 C39.7720141,32.5881346 39.8219661,32.4763263 39.8552674,32.364518 C39.8885687,32.236737 39.92187,32.1089561 39.9551713,31.9492299 C39.971822,31.7895037 39.9884726,31.6138049 39.9884726,31.4221335 L39.9884726,31.2304621 C39.9884726,31.0547633 39.971822,30.8790645 39.9551713,30.7353109 C39.9385207,30.5915573 39.9052193,30.4637764 39.8552674,30.3359954 C39.8219661,30.2241871 39.7720141,30.1123788 39.7220621,30.0325157 C39.6721102,29.93668 39.6055075,29.8727895 39.5555556,29.808899 C39.4889529,29.7450086 39.4223503,29.6970907 39.3557477,29.6491728 C39.2891451,29.601255 39.2058918,29.5693098 39.1226385,29.5373645 C39.0393852,29.5054193 38.9394813,29.4894467 38.856228,29.473474 C38.7729747,29.4575014 38.6730708,29.4575014 38.5898175,29.4575014 C38.4899135,29.4575014 38.4066603,29.4575014 38.323407,29.473474 C38.2401537,29.4894467 38.1402498,29.5054193 38.0569965,29.5373645 C37.9737432,29.5693098 37.8904899,29.601255 37.8238873,29.6491728 C37.7572847,29.6970907 37.690682,29.7450086 37.6240794,29.808899 C37.5574768,29.8727895 37.5075248,29.9526526 37.4575728,30.0325157 C37.4076209,30.1283514 37.3576689,30.2241871 37.3243676,30.3359954 C37.2910663,30.4478038 37.257765,30.5755847 37.2244637,30.7353109 C37.207813,30.8790645 37.1911623,31.0387906 37.1911623,31.2304621 L37.1911623,31.4221335 C37.1911623,31.6138049 37.207813,31.7895037 37.2244637,31.9492299 C37.2411143,32.1089561 37.2744156,32.236737 37.3243676,32.364518 C37.3576689,32.4922989 37.4076209,32.5881346 37.4575728,32.6839703 C37.5075248,32.779806 37.5741274,32.8596691 37.6240794,32.9235596 C37.690682,32.9874501 37.7572847,33.0513406 37.8238873,33.0992584 L37.8238873,33.0992584 C37.8904899,33.1471763 37.9737432,33.1791215 38.0569965,33.2110667 C38.1402498,33.243012 38.223503,33.2589846 38.323407,33.2749572 C38.4066603,33.2909298 38.5065642,33.2909298 38.5898175,33.2909298 Z M38.5898175,35 C38.3567083,35 38.1235991,34.9840274 37.8904899,34.9520821 C37.6573807,34.9201369 37.4409222,34.8722191 37.2244637,34.8083286 C37.0080051,34.7444381 36.8081972,34.6486024 36.6083894,34.5527667 C36.4252321,34.4409584 36.2420749,34.3131774 36.0755684,34.1694238 C35.9090618,34.0256703 35.7592059,33.8499715 35.6426513,33.6742727 C35.509446,33.4826013 35.4095421,33.2909298 35.3096382,33.0673132 C35.2097342,32.8436965 35.1431316,32.5881346 35.0931796,32.3166001 C35.0432277,32.0450656 35.026577,31.7575585 35.026577,31.4381061 L35.026577,31.2464347 C35.026577,30.9429549 35.0432277,30.6714204 35.0931796,30.3998859 C35.1431316,30.144324 35.2097342,29.9047347 35.3096382,29.6811181 C35.4095421,29.4575014 35.509446,29.26583 35.6426513,29.0741586 C35.7758565,28.8984598 35.9090618,28.7387336 36.0755684,28.59498 C36.2420749,28.4512265 36.4085815,28.3234455 36.6083894,28.2276098 C36.7915466,28.1317741 36.9913545,28.0359384 37.2244637,27.9720479 C37.4409222,27.9081574 37.6573807,27.8602396 37.8904899,27.8282944 C38.1235991,27.7963491 38.3400576,27.7803765 38.5898175,27.7803765 C38.8229267,27.7803765 39.0560359,27.7963491 39.2891451,27.8282944 C39.5222542,27.8602396 39.7387128,27.9081574 39.9551713,27.9720479 C40.1716298,28.0359384 40.3714377,28.1317741 40.5545949,28.2276098 C40.7377522,28.3394181 40.9209094,28.4512265 41.0874159,28.59498 C41.2539225,28.7387336 41.4037784,28.8984598 41.520333,29.0741586 C41.6535383,29.2498574 41.7534422,29.4575014 41.8533461,29.6811181 C41.9532501,29.9047347 42.0198527,30.144324 42.0698047,30.3998859 C42.1197566,30.6554478 42.1364073,30.9429549 42.1364073,31.2464347 L42.1364073,31.4381061 C42.1364073,31.7575585 42.1197566,32.0450656 42.0698047,32.3166001 C42.0198527,32.5881346 41.9532501,32.8436965 41.8533461,33.0673132 C41.7534422,33.2909298 41.6535383,33.4985739 41.520333,33.6742727 C41.3871278,33.8659441 41.2539225,34.0256703 41.0874159,34.1694238 C40.9209094,34.3131774 40.7544028,34.4409584 40.5545949,34.5527667 C40.3714377,34.664575 40.1549792,34.7444381 39.9385207,34.8083286 C39.7220621,34.8722191 39.5056036,34.9201369 39.2724944,34.9520821 C39.0560359,34.9840274 38.8395773,35 38.5898175,35 Z M31.2135767,30.5755847 C31.5632405,30.5755847 31.7963497,30.5276669 31.9129043,30.4318311 C31.9628562,30.3839133 31.9961575,30.3359954 32.0294589,30.272105 C32.0627602,30.2082145 32.0627602,30.1283514 32.0627602,30.0325157 C32.0627602,29.93668 32.0461095,29.8568169 32.0294589,29.7929264 C31.9961575,29.7290359 31.9628562,29.6811181 31.9129043,29.6332002 C31.8629523,29.5852824 31.779699,29.5533371 31.6797951,29.5373645 C31.5632405,29.5054193 31.4133846,29.5054193 31.2302273,29.5054193 L30.2478386,29.5054193 L30.2478386,30.5915573 L31.2135767,30.5915573 L31.2135767,30.5755847 Z M31.3634326,33.2909298 C31.5632405,33.2909298 31.7463977,33.2749572 31.8796029,33.243012 C32.0128082,33.2110667 32.1127121,33.1791215 32.1793148,33.1312037 C32.2459174,33.0832858 32.2958694,33.0193953 32.3291707,32.9395322 C32.362472,32.8596691 32.3791226,32.7638334 32.3791226,32.6520251 C32.3791226,32.5402168 32.362472,32.4443811 32.3291707,32.364518 C32.2958694,32.2846549 32.2459174,32.2207644 32.1793148,32.1728465 C32.1127121,32.1249287 32.0128082,32.0770108 31.8796029,32.0610382 C31.729747,32.029093 31.5632405,32.0131204 31.3467819,32.0131204 L30.2478386,32.0131204 L30.2478386,33.2909298 L31.3634326,33.2909298 Z M29.4153058,27.8921848 L29.4652578,27.8921848 L31.6464938,27.8921848 C32.0627602,27.8921848 32.4290746,27.9401027 32.7454371,28.0199658 C33.0617996,28.0998289 33.3282101,28.2276098 33.5280179,28.4033086 C33.9276337,28.7387336 34.1440922,29.2179122 34.1440922,29.8248716 C34.1440922,30.1922419 34.0441883,30.5276669 33.8443804,30.7832288 C33.7444765,30.9110097 33.6279219,31.0387906 33.478066,31.1346264 C33.428114,31.1665716 33.3948127,31.1985168 33.3448607,31.2144894 C33.428114,31.2464347 33.5113673,31.2783799 33.5946206,31.3262978 C33.7777778,31.4221335 33.9276337,31.5499144 34.0608389,31.693668 C34.3272494,31.9971477 34.4604547,32.3804906 34.4604547,32.8436965 C34.4604547,33.1631489 34.4105027,33.4346834 34.2939481,33.6902453 C34.1773935,33.9458072 34.0275376,34.1534512 33.8110791,34.3451226 C33.5946206,34.5208214 33.3115594,34.664575 32.9618956,34.7604107 C32.6288825,34.8562464 32.2292667,34.8881917 31.7630484,34.8881917 L28.1665066,34.8881917 L28.1665066,28.7866515 C28.1831572,28.5151169 28.2830612,28.3074729 28.4329171,28.1637193 C28.5994236,28.0039932 28.7992315,27.9241301 29.0489914,27.9081574 L29.4153058,27.8921848 Z M73.6560999,18.7718197 L75.587576,18.7718197 L75.587576,22.4934398 L78.1351265,18.7718197 L80,18.7718197 L80,25.751854 L77.9186679,25.751854 L77.9186679,22.0302339 L75.3711175,25.751854 L73.506244,25.751854 L73.506244,18.7718197 L73.6560999,18.7718197 Z M65.9135447,18.7718197 L67.8450208,18.7718197 L67.8450208,22.4934398 L70.3925712,18.7718197 L72.2574448,18.7718197 L72.2574448,25.751854 L70.1761127,25.751854 L70.1761127,22.0302339 L67.6285623,25.751854 L65.7636888,25.751854 L65.7636888,18.7718197 L65.9135447,18.7718197 Z M58.1876401,18.7718197 L60.1191162,18.7718197 L60.1191162,21.3274387 L62.4502081,21.3274387 L62.4502081,18.7718197 L64.5315402,18.7718197 L64.5315402,25.751854 L62.4502081,25.751854 L62.4502081,23.0045636 L60.1191162,23.0045636 L60.1191162,25.751854 L58.0377842,25.751854 L58.0377842,18.7718197 L58.1876401,18.7718197 Z M53.9916747,24.074729 C54.3746398,24.074729 54.6577009,24.0108386 54.8075568,23.8830576 C54.8908101,23.8191671 54.9407621,23.7393041 54.9740634,23.659441 C55.0073647,23.5795779 55.0240154,23.4837422 55.0240154,23.3879064 C55.0240154,23.2920707 55.0073647,23.196235 54.9740634,23.1163719 C54.9407621,23.0365088 54.8741595,22.9566458 54.8075568,22.8927553 C54.7243036,22.8288648 54.6243996,22.7809469 54.4911944,22.7490017 C54.3579891,22.7170565 54.1748319,22.7010839 53.975024,22.7010839 L53.2590458,22.7010839 L53.2590458,24.0907017 L53.9916747,24.0907017 L53.9916747,24.074729 Z M51.3442203,18.7718197 L53.2756964,18.7718197 L53.2756964,21.0079863 L54.1914825,21.0079863 C54.6910022,21.0079863 55.1239193,21.0559042 55.5068844,21.1677125 C55.8898495,21.2795208 56.206212,21.439247 56.4559718,21.646891 C56.7057317,21.8545351 56.8888889,22.110097 57.0054435,22.4135767 C57.1219981,22.7010839 57.1886007,23.0365088 57.1886007,23.3879064 C57.1886007,24.1226469 56.9388409,24.6976612 56.4393212,25.1289218 C56.1895613,25.3365659 55.8731988,25.5122647 55.4902337,25.6081004 C55.1239193,25.7199087 54.6743516,25.7678266 54.1748319,25.7678266 L51.1777137,25.7678266 L51.1777137,18.7718197 L51.3442203,18.7718197 Z M43.9013769,25.8796349 L43.8014729,25.8796349 L43.6682677,25.8796349 C43.6183157,25.8796349 43.5683638,25.8796349 43.5350624,25.8636623 C43.4851105,25.8636623 43.4518092,25.8476897 43.4185078,25.8476897 L43.3186039,25.8157444 L43.3186039,24.0427838 L43.4851105,24.074729 C43.5017611,24.074729 43.5184118,24.074729 43.5350624,24.074729 C43.5517131,24.074729 43.5850144,24.074729 43.6183157,24.074729 C43.6849183,24.074729 43.751521,24.074729 43.8181236,24.0587564 C43.8680756,24.0427838 43.9346782,24.0268112 43.9679795,24.0108386 C44.0012808,23.9948659 44.0345821,23.9629207 44.0678834,23.9150029 C44.1011848,23.8511124 44.1511367,23.7712493 44.1677874,23.6754136 C44.2010887,23.5795779 44.23439,23.4517969 44.2510407,23.2920707 C44.284342,23.1323446 44.3009926,22.9566458 44.3176433,22.7490017 C44.3342939,22.5413577 44.3509446,22.2857958 44.3509446,21.9982886 C44.3509446,21.7267541 44.3675953,21.3913292 44.3675953,21.0239589 L44.3675953,19.6503137 C44.3842459,19.3787792 44.4841499,19.1871078 44.6340058,19.0433542 C44.8005123,18.8836281 45.0003202,18.803765 45.2500801,18.7877924 L45.7495997,18.7877924 L45.7662504,18.7877924 L45.7829011,18.7877924 L45.7995517,18.7877924 L45.8162024,18.7877924 L45.832853,18.7877924 L45.8495037,18.7877924 L45.8661543,18.7877924 L45.882805,18.7877924 L45.8994557,18.7877924 L45.9161063,18.7877924 L45.932757,18.7877924 L46.0160102,18.7877924 L46.0160102,18.7877924 L46.0160102,18.7877924 L46.0160102,18.7877924 L46.0160102,18.7877924 L46.0160102,18.7877924 L46.0160102,18.7877924 L46.0160102,18.7877924 L49.9622158,18.7877924 L49.9622158,25.7678266 L47.8642331,25.7678266 L47.8642331,20.4649173 L46.3157221,20.4649173 L46.3157221,21.231603 C46.3157221,21.7267541 46.2990714,22.1739875 46.2824207,22.5892755 C46.2491194,22.988591 46.2158181,23.3399886 46.1658662,23.6434683 C46.1159142,23.9469481 46.0493116,24.2184826 45.9660583,24.4420993 C45.882805,24.6816885 45.7995517,24.8893326 45.6996478,25.0490588 C45.5997438,25.2247576 45.4831892,25.3685111 45.349984,25.4803195 C45.2167787,25.5921278 45.0669228,25.6879635 44.9170669,25.7358813 C44.767211,25.7837992 44.6173551,25.8317171 44.4508485,25.8476897 C44.2510407,25.8796349 44.0845341,25.8796349 43.9013769,25.8796349 Z M38.7896254,22.8767827 L39.7387128,22.8767827 L39.2724944,21.4552196 L38.7896254,22.8767827 Z M40.3381364,24.4740445 L38.1902017,24.4740445 L37.7073327,25.7678266 L35.7092539,25.7678266 C36.5917387,23.4358243 37.4742235,21.103822 38.3567083,18.7877924 L40.3547871,18.7877924 L43.0022414,25.7678266 L40.8043548,25.7678266 L40.3381364,24.4740445 Z M32.5789305,24.074729 L32.5789305,20.4649173 L31.196926,20.4649173 L31.196926,20.7364518 C31.196926,21.5191101 31.1636247,22.2059327 31.0970221,22.7649743 C31.0470701,23.2601255 30.9638168,23.6913862 30.8472622,24.074729 L32.5789305,24.074729 L32.5789305,24.074729 Z M28.1165546,24.074729 L28.8158822,24.074729 C28.8491835,23.9948659 28.8658341,23.9150029 28.8991354,23.8191671 C28.9324368,23.6913862 28.9657381,23.5636052 28.9990394,23.4198517 C29.0323407,23.2760981 29.0489914,23.1323446 29.0822927,22.988591 C29.0989433,22.8448374 29.1322446,22.6851112 29.1322446,22.5253851 C29.1488953,22.3656589 29.1655459,22.2059327 29.1821966,22.0302339 C29.1988473,21.8545351 29.1988473,21.6948089 29.2154979,21.5350827 C29.2321486,21.3593839 29.2321486,21.1996577 29.2321486,21.0239589 C29.2321486,20.8642327 29.2321486,20.7045066 29.2321486,20.5288078 L29.2321486,19.6503137 C29.2487992,19.3787792 29.3487032,19.1551626 29.4985591,19.011409 C29.6650656,18.8516828 29.8648735,18.7718197 30.1146334,18.7558471 L30.6141531,18.7558471 L30.6308037,18.7558471 L30.6474544,18.7558471 L30.664105,18.7558471 L30.6807557,18.7558471 L30.6974063,18.7558471 L30.714057,18.7558471 L30.7307077,18.7558471 L30.7473583,18.7558471 L30.764009,18.7558471 L30.7806596,18.7558471 L30.7973103,18.7558471 L30.8805636,18.7558471 L30.8805636,18.7558471 L30.8805636,18.7558471 L30.8805636,18.7558471 L30.8805636,18.7558471 L30.8805636,18.7558471 L30.8805636,18.7558471 L30.8805636,18.7558471 L34.6602626,18.7558471 L34.6602626,24.0587564 L35.3762408,24.0587564 L35.3762408,26.5984027 L33.5446686,26.5984027 L33.5446686,25.7358813 L29.8315722,25.7358813 L29.8315722,26.5984027 L28,26.5984027 L28,24.0587564 L28.1165546,24.0587564 L28.1165546,24.074729 Z M50.3285303,9.79520821 L52.2600064,9.79520821 L52.2600064,13.5168283 L54.8075568,9.79520821 L56.6724304,9.79520821 L56.6724304,16.7752424 L54.5910983,16.7752424 L54.5910983,13.069595 L52.0435479,16.7912151 L50.195325,16.7912151 L50.195325,9.79520821 L50.3285303,9.79520821 Z M45.6330451,15.2099258 C45.7329491,15.2099258 45.8162024,15.2099258 45.8994557,15.1939532 C45.9827089,15.1779806 46.0826129,15.162008 46.1658662,15.1300627 C46.2491194,15.0981175 46.3323727,15.0661723 46.3989753,15.0182544 C46.465578,14.9703366 46.5321806,14.9224187 46.5987832,14.8425556 C46.6653858,14.7786651 46.7153378,14.6988021 46.7652898,14.6029663 C46.8152418,14.5071306 46.8651937,14.3953223 46.898495,14.283514 C46.9317963,14.155733 46.9650977,14.0279521 46.998399,13.8682259 C47.0150496,13.7084997 47.0317003,13.5328009 47.0317003,13.3411295 L47.0317003,13.1494581 C47.0317003,12.9737593 47.0150496,12.7980605 46.998399,12.6543069 C46.9817483,12.5105533 46.948447,12.3827724 46.898495,12.2549914 C46.8651937,12.1431831 46.8152418,12.0313748 46.7652898,11.9515117 C46.7153378,11.855676 46.6653858,11.7917855 46.5987832,11.727895 C46.5321806,11.6640046 46.465578,11.6160867 46.3989753,11.5681689 C46.3323727,11.520251 46.2491194,11.4883058 46.1658662,11.4563605 C46.0826129,11.4244153 45.9827089,11.4084427 45.8994557,11.3924701 C45.8162024,11.3764974 45.7162984,11.3764974 45.6330451,11.3764974 C45.5331412,11.3764974 45.4498879,11.3764974 45.3666346,11.3924701 C45.2833814,11.4084427 45.1834774,11.4244153 45.1002241,11.4563605 C45.0169709,11.4883058 44.9337176,11.520251 44.867115,11.5681689 C44.8005123,11.6160867 44.7339097,11.6640046 44.6673071,11.727895 C44.6007045,11.7917855 44.5507525,11.8716486 44.5008005,11.9515117 C44.4508485,12.0473474 44.4008966,12.1431831 44.3675953,12.2549914 C44.3342939,12.3667998 44.3009926,12.4945807 44.2676913,12.6543069 C44.2510407,12.7980605 44.23439,12.9577867 44.23439,13.1494581 L44.23439,13.3411295 C44.23439,13.5328009 44.2510407,13.7084997 44.2676913,13.8682259 C44.284342,14.0279521 44.3176433,14.155733 44.3675953,14.283514 C44.4008966,14.4112949 44.4508485,14.5071306 44.5008005,14.6029663 C44.5507525,14.6988021 44.6173551,14.7786651 44.6673071,14.8425556 C44.7339097,14.9064461 44.8005123,14.9703366 44.867115,15.0182544 C44.9337176,15.0661723 45.0169709,15.0981175 45.1002241,15.1300627 C45.1834774,15.162008 45.2667307,15.1779806 45.3666346,15.1939532 C45.4498879,15.1939532 45.5497919,15.2099258 45.6330451,15.2099258 Z M45.6330451,16.9030234 C45.399936,16.9030234 45.1668268,16.8870508 44.9337176,16.8551055 C44.717259,16.8231603 44.4841499,16.7752424 44.2676913,16.711352 C44.0512328,16.6474615 43.8514249,16.5516258 43.651617,16.4557901 C43.4684598,16.3439817 43.2853026,16.2162008 43.118796,16.0724472 C42.9522895,15.9286937 42.8024336,15.7529949 42.685879,15.5772961 C42.5526737,15.3856246 42.4527698,15.1939532 42.3528658,14.9703366 C42.2529619,14.7467199 42.1863593,14.491158 42.1364073,14.2196235 C42.0864553,13.948089 42.0698047,13.6605819 42.0698047,13.3411295 L42.0698047,13.1494581 C42.0698047,12.8459783 42.0864553,12.5744438 42.1364073,12.3029093 C42.1863593,12.0473474 42.2529619,11.8077581 42.3528658,11.5841415 C42.4527698,11.3605248 42.5526737,11.1688534 42.685879,10.977182 C42.8190842,10.8014832 42.9522895,10.641757 43.118796,10.4980034 C43.2853026,10.3542499 43.4518092,10.2264689 43.651617,10.1306332 C43.8347743,10.0347975 44.0512328,9.93896178 44.2676913,9.87507131 C44.4841499,9.81118083 44.7006084,9.76326298 44.9337176,9.73131774 C45.1668268,9.6993725 45.3832853,9.68339989 45.6330451,9.68339989 C45.8661543,9.68339989 46.0992635,9.6993725 46.3323727,9.73131774 C46.5488313,9.76326298 46.7819404,9.81118083 46.998399,9.87507131 C47.2148575,9.93896178 47.4146654,10.0347975 47.5978226,10.1306332 L47.5978226,10.1306332 C47.7809798,10.2264689 47.964137,10.3542499 48.1306436,10.4980034 C48.2971502,10.641757 48.4470061,10.8014832 48.5635607,10.977182 C48.6967659,11.1528808 48.7966699,11.3605248 48.8965738,11.5841415 C48.9964777,11.8077581 49.0630804,12.0473474 49.1130323,12.3029093 C49.1629843,12.5584712 49.179635,12.8459783 49.179635,13.1494581 L49.179635,13.3411295 C49.179635,13.6605819 49.1629843,13.948089 49.1130323,14.2196235 C49.0630804,14.491158 48.9964777,14.7467199 48.8965738,14.9703366 C48.7966699,15.1939532 48.6967659,15.4015973 48.5635607,15.5772961 C48.4303554,15.7689675 48.2971502,15.9286937 48.1306436,16.0724472 C47.964137,16.2162008 47.7976305,16.3439817 47.5978226,16.4557901 C47.4146654,16.5675984 47.1982069,16.6474615 46.9817483,16.711352 C46.7652898,16.7752424 46.5488313,16.8231603 46.3157221,16.8551055 C46.0992635,16.8870508 45.882805,16.9030234 45.6330451,16.9030234 Z M38.2568044,12.4786081 C38.6064681,12.4786081 38.8395773,12.4306902 38.9561319,12.3348545 C39.0060839,12.2869367 39.0560359,12.2390188 39.0726865,12.1751284 C39.1059878,12.1112379 39.1059878,12.0313748 39.1059878,11.9355391 C39.1059878,11.8397034 39.0893372,11.7598403 39.0726865,11.6959498 C39.0393852,11.6320593 39.0060839,11.5841415 38.9561319,11.5362236 C38.90618,11.4883058 38.8229267,11.4563605 38.7230227,11.4403879 C38.6064681,11.4084427 38.4566122,11.4084427 38.273455,11.4084427 L37.2910663,11.4084427 L37.2910663,12.4945807 L38.2568044,12.4945807 L38.2568044,12.4786081 Z M38.4066603,15.1939532 C38.6064681,15.1939532 38.7896254,15.1779806 38.9228306,15.1460354 C39.0560359,15.1140901 39.1559398,15.0821449 39.2225424,15.034227 C39.2891451,14.9863092 39.339097,14.9224187 39.3723983,14.8425556 C39.4056996,14.7626925 39.4223503,14.6668568 39.4223503,14.5550485 C39.4223503,14.4432402 39.4056996,14.3474044 39.3723983,14.2675414 C39.339097,14.1876783 39.2891451,14.1237878 39.2225424,14.0758699 C39.1559398,14.0279521 39.0560359,13.9800342 38.9228306,13.9640616 C38.7729747,13.9321164 38.6064681,13.9161438 38.3900096,13.9161438 L37.2910663,13.9161438 L37.2910663,15.1939532 L38.4066603,15.1939532 Z M35.3429395,9.79520821 L38.7063721,9.79520821 C39.1226385,9.79520821 39.4889529,9.84312607 39.8053154,9.92298916 C40.1216779,10.0028523 40.3880884,10.1306332 40.5878963,10.306332 C40.987512,10.641757 41.2039705,11.1209355 41.2039705,11.727895 C41.2039705,12.0952653 41.1040666,12.4306902 40.9042587,12.6862521 C40.8043548,12.8140331 40.6878002,12.941814 40.5379443,13.0376497 C40.4879923,13.069595 40.454691,13.1015402 40.404739,13.1175128 C40.4879923,13.1494581 40.5712456,13.1814033 40.6544989,13.2293212 C40.8376561,13.3251569 40.987512,13.4529378 41.1207173,13.5966914 C41.3871278,13.9001711 41.520333,14.283514 41.520333,14.7467199 C41.520333,15.0661723 41.470381,15.3377068 41.3538264,15.5932687 C41.2372719,15.8488306 41.0874159,16.0564746 40.8709574,16.248146 C40.6544989,16.4238448 40.3714377,16.5675984 40.0217739,16.6634341 C39.6887608,16.7592698 39.2891451,16.7912151 38.8229267,16.7912151 L35.2097342,16.7912151 L35.2097342,9.79520821 L35.3429395,9.79520821 Z M74.6884406,17.254421 L75.054755,16.5995436 C75.054755,16.5995436 75.6708293,16.7752424 76.7364713,17.4780376 C77.6855588,17.1745579 78.6679475,15.9925841 78.6679475,15.9925841 L79.2507205,16.4078722 C79.2507205,16.4078722 78.5014409,17.8933257 77.5190522,18.5162578 C77.3025937,18.5641757 76.3868076,18.5961209 75.9705411,18.5162578 C75.9705411,18.5322305 75.4543708,17.7016543 74.6884406,17.254421 Z M51.3941723,8.26183685 L51.7604867,7.6069595 C51.7604867,7.6069595 52.376561,7.7826583 53.442203,8.48545351 C54.3912904,8.18197376 55.3736792,7 55.3736792,7 L55.9564521,7.41528808 C55.9564521,7.41528808 55.2071726,8.90074159 54.2247839,9.5236737 C54.0083253,9.57159156 53.0925392,9.60353679 52.6762728,9.5236737 C52.6762728,9.53964632 52.1434518,8.69309755 51.3941723,8.26183685 Z M30.2145373,11.4883058 L28.0666026,11.4883058 L28.0666026,9.79520821 L34.443804,9.79520821 L34.443804,11.4883058 L32.2958694,11.4883058 L32.2958694,16.7912151 L30.2145373,16.7912151 L30.2145373,11.4883058 Z"/>
  </g>
</svg>
